<mxfile host="65bd71144e">
    <diagram id="68O1lIGODIwUU5qkoGN6" name="ページ1">
        <mxGraphModel dx="515" dy="690" grid="0" gridSize="10" guides="1" tooltips="1" connect="1" arrows="1" fold="1" page="1" pageScale="1" pageWidth="1200" pageHeight="1920" background="#ffffff" math="0" shadow="0">
            <root>
                <mxCell id="0"/>
                <mxCell id="1" parent="0"/>
                <mxCell id="3" value="" style="rounded=0;whiteSpace=wrap;html=1;strokeColor=none;" vertex="1" parent="1">
                    <mxGeometry x="1050" y="620" width="120" height="60" as="geometry"/>
                </mxCell>
                <mxCell id="2" value="" style="rounded=0;whiteSpace=wrap;html=1;strokeColor=none;" vertex="1" parent="1">
                    <mxGeometry x="63" y="78" width="120" height="60" as="geometry"/>
                </mxCell>
                <mxCell id="4" value="" style="edgeStyle=none;html=1;exitX=0.5;exitY=1;exitDx=0;exitDy=0;dashed=1;endArrow=none;endFill=0;" edge="1" parent="1" source="15">
                    <mxGeometry relative="1" as="geometry">
                        <mxPoint x="745" y="640" as="targetPoint"/>
                        <mxPoint x="745" y="300" as="sourcePoint"/>
                    </mxGeometry>
                </mxCell>
                <mxCell id="5" style="edgeStyle=none;html=1;exitX=0.5;exitY=1;exitDx=0;exitDy=0;dashed=1;endArrow=none;endFill=0;startArrow=none;" edge="1" parent="1" source="60">
                    <mxGeometry relative="1" as="geometry">
                        <mxPoint x="245" y="670" as="targetPoint"/>
                    </mxGeometry>
                </mxCell>
                <mxCell id="6" style="edgeStyle=none;html=1;endArrow=none;endFill=0;dashed=1;" edge="1" parent="1" source="7">
                    <mxGeometry relative="1" as="geometry">
                        <mxPoint x="115" y="650" as="targetPoint"/>
                        <mxPoint x="115" y="210" as="sourcePoint"/>
                    </mxGeometry>
                </mxCell>
                <mxCell id="7" value="：ユーザ" style="shape=umlActor;verticalLabelPosition=bottom;verticalAlign=top;html=1;" vertex="1" parent="1">
                    <mxGeometry x="100" y="120" width="30" height="60" as="geometry"/>
                </mxCell>
                <mxCell id="9" value="index.html" style="html=1;" vertex="1" parent="1">
                    <mxGeometry x="190" y="130" width="110" height="50" as="geometry"/>
                </mxCell>
                <mxCell id="10" value="" style="html=1;points=[];perimeter=orthogonalPerimeter;" vertex="1" parent="1">
                    <mxGeometry x="240" y="220" width="10" height="370" as="geometry"/>
                </mxCell>
                <mxCell id="11" style="edgeStyle=none;html=1;exitX=0.5;exitY=1;exitDx=0;exitDy=0;dashed=1;endArrow=none;endFill=0;" edge="1" parent="1" source="12">
                    <mxGeometry relative="1" as="geometry">
                        <mxPoint x="525" y="650" as="targetPoint"/>
                    </mxGeometry>
                </mxCell>
                <mxCell id="12" value=": UpdateController" style="html=1;" vertex="1" parent="1">
                    <mxGeometry x="470" y="130" width="110" height="50" as="geometry"/>
                </mxCell>
                <mxCell id="13" value="" style="html=1;points=[];perimeter=orthogonalPerimeter;" vertex="1" parent="1">
                    <mxGeometry x="520" y="220" width="10" height="380" as="geometry"/>
                </mxCell>
                <mxCell id="15" value=": UserModel" style="html=1;" vertex="1" parent="1">
                    <mxGeometry x="690" y="130" width="110" height="50" as="geometry"/>
                </mxCell>
                <mxCell id="16" value="" style="html=1;points=[];perimeter=orthogonalPerimeter;" vertex="1" parent="1">
                    <mxGeometry x="740" y="290" width="10" height="40" as="geometry"/>
                </mxCell>
                <mxCell id="19" value="" style="endArrow=classic;html=1;" edge="1" parent="1" source="31" target="13">
                    <mxGeometry width="50" height="50" relative="1" as="geometry">
                        <mxPoint x="300" y="264" as="sourcePoint"/>
                        <mxPoint x="390" y="270" as="targetPoint"/>
                        <Array as="points">
                            <mxPoint x="420" y="264"/>
                        </Array>
                    </mxGeometry>
                </mxCell>
                <mxCell id="20" value="1.1: doPost()" style="text;html=1;align=center;verticalAlign=middle;resizable=0;points=[];autosize=1;strokeColor=none;fillColor=none;" vertex="1" parent="1">
                    <mxGeometry x="390" y="240" width="80" height="20" as="geometry"/>
                </mxCell>
                <mxCell id="24" value="" style="endArrow=classic;html=1;exitX=1.2;exitY=0.197;exitDx=0;exitDy=0;exitPerimeter=0;" edge="1" parent="1" source="13">
                    <mxGeometry width="50" height="50" relative="1" as="geometry">
                        <mxPoint x="530" y="350.0799999999999" as="sourcePoint"/>
                        <mxPoint x="740" y="295" as="targetPoint"/>
                        <Array as="points">
                            <mxPoint x="628" y="295"/>
                            <mxPoint x="680" y="295"/>
                        </Array>
                    </mxGeometry>
                </mxCell>
                <mxCell id="25" value="1.1.1: getUsername" style="text;html=1;align=center;verticalAlign=middle;resizable=0;points=[];autosize=1;strokeColor=none;fillColor=none;" vertex="1" parent="1">
                    <mxGeometry x="570" y="270" width="120" height="20" as="geometry"/>
                </mxCell>
                <mxCell id="28" value="" style="endArrow=classic;html=1;entryX=0.1;entryY=0.075;entryDx=0;entryDy=0;entryPerimeter=0;" edge="1" parent="1" source="13" target="39">
                    <mxGeometry width="50" height="50" relative="1" as="geometry">
                        <mxPoint x="750" y="358" as="sourcePoint"/>
                        <mxPoint x="950" y="360" as="targetPoint"/>
                        <Array as="points"/>
                    </mxGeometry>
                </mxCell>
                <mxCell id="29" value="1.1.2: getName" style="text;html=1;align=center;verticalAlign=middle;resizable=0;points=[];autosize=1;strokeColor=none;fillColor=none;" vertex="1" parent="1">
                    <mxGeometry x="760" y="335" width="100" height="20" as="geometry"/>
                </mxCell>
                <mxCell id="30" value="" style="endArrow=classic;dashed=1;html=1;endFill=1;entryX=1.25;entryY=0.995;entryDx=0;entryDy=0;entryPerimeter=0;" edge="1" parent="1" source="13" target="31">
                    <mxGeometry width="50" height="50" relative="1" as="geometry">
                        <mxPoint x="460" y="410" as="sourcePoint"/>
                        <mxPoint x="300" y="460" as="targetPoint"/>
                        <Array as="points">
                            <mxPoint x="340" y="568"/>
                        </Array>
                    </mxGeometry>
                </mxCell>
                <mxCell id="31" value="" style="html=1;points=[];perimeter=orthogonalPerimeter;" vertex="1" parent="1">
                    <mxGeometry x="250" y="240" width="10" height="330" as="geometry"/>
                </mxCell>
                <mxCell id="32" value="" style="endArrow=classic;html=1;exitX=1;exitY=0.019;exitDx=0;exitDy=0;exitPerimeter=0;entryX=1.1;entryY=0.024;entryDx=0;entryDy=0;entryPerimeter=0;rounded=0;" edge="1" parent="1" source="10" target="31">
                    <mxGeometry width="50" height="50" relative="1" as="geometry">
                        <mxPoint x="280" y="250" as="sourcePoint"/>
                        <mxPoint x="340" y="260" as="targetPoint"/>
                        <Array as="points">
                            <mxPoint x="340" y="226"/>
                            <mxPoint x="340" y="246"/>
                        </Array>
                    </mxGeometry>
                </mxCell>
                <mxCell id="33" value="1: sendUpdateRequest" style="text;html=1;align=center;verticalAlign=middle;resizable=0;points=[];autosize=1;strokeColor=none;fillColor=none;" vertex="1" parent="1">
                    <mxGeometry x="250" y="200" width="140" height="20" as="geometry"/>
                </mxCell>
                <mxCell id="34" value="" style="endArrow=classic;dashed=1;html=1;endFill=1;" edge="1" parent="1" source="16">
                    <mxGeometry width="50" height="50" relative="1" as="geometry">
                        <mxPoint x="730" y="320" as="sourcePoint"/>
                        <mxPoint x="530" y="320" as="targetPoint"/>
                        <Array as="points">
                            <mxPoint x="660" y="320"/>
                            <mxPoint x="640" y="320"/>
                        </Array>
                    </mxGeometry>
                </mxCell>
                <mxCell id="37" value="" style="edgeStyle=none;html=1;exitX=0.5;exitY=1;exitDx=0;exitDy=0;dashed=1;endArrow=none;endFill=0;startArrow=none;" edge="1" parent="1" source="44">
                    <mxGeometry relative="1" as="geometry">
                        <mxPoint x="925" y="640" as="targetPoint"/>
                        <mxPoint x="925" y="300" as="sourcePoint"/>
                    </mxGeometry>
                </mxCell>
                <mxCell id="38" value=": BookModel" style="html=1;" vertex="1" parent="1">
                    <mxGeometry x="870" y="130" width="110" height="50" as="geometry"/>
                </mxCell>
                <mxCell id="39" value="" style="html=1;points=[];perimeter=orthogonalPerimeter;" vertex="1" parent="1">
                    <mxGeometry x="920" y="355" width="10" height="40" as="geometry"/>
                </mxCell>
                <mxCell id="41" value="" style="edgeStyle=none;html=1;exitX=0.5;exitY=1;exitDx=0;exitDy=0;dashed=1;endArrow=none;endFill=0;" edge="1" parent="1" source="38" target="39">
                    <mxGeometry relative="1" as="geometry">
                        <mxPoint x="925" y="640" as="targetPoint"/>
                        <mxPoint x="925" y="180" as="sourcePoint"/>
                    </mxGeometry>
                </mxCell>
                <mxCell id="43" value="" style="endArrow=classic;dashed=1;html=1;endFill=1;" edge="1" parent="1">
                    <mxGeometry width="50" height="50" relative="1" as="geometry">
                        <mxPoint x="920" y="395" as="sourcePoint"/>
                        <mxPoint x="530" y="395" as="targetPoint"/>
                    </mxGeometry>
                </mxCell>
                <mxCell id="44" value="" style="html=1;points=[];perimeter=orthogonalPerimeter;" vertex="1" parent="1">
                    <mxGeometry x="920" y="430" width="10" height="40" as="geometry"/>
                </mxCell>
                <mxCell id="45" value="" style="edgeStyle=none;html=1;exitX=0.5;exitY=1;exitDx=0;exitDy=0;dashed=1;endArrow=none;endFill=0;startArrow=none;" edge="1" parent="1" source="39" target="44">
                    <mxGeometry relative="1" as="geometry">
                        <mxPoint x="925" y="640" as="targetPoint"/>
                        <mxPoint x="925" y="395" as="sourcePoint"/>
                    </mxGeometry>
                </mxCell>
                <mxCell id="46" value="" style="endArrow=classic;html=1;entryX=0.1;entryY=0.075;entryDx=0;entryDy=0;entryPerimeter=0;" edge="1" parent="1">
                    <mxGeometry width="50" height="50" relative="1" as="geometry">
                        <mxPoint x="530" y="430" as="sourcePoint"/>
                        <mxPoint x="921" y="430" as="targetPoint"/>
                        <Array as="points"/>
                    </mxGeometry>
                </mxCell>
                <mxCell id="47" value="" style="endArrow=classic;dashed=1;html=1;endFill=1;" edge="1" parent="1">
                    <mxGeometry width="50" height="50" relative="1" as="geometry">
                        <mxPoint x="920" y="470" as="sourcePoint"/>
                        <mxPoint x="530" y="470" as="targetPoint"/>
                    </mxGeometry>
                </mxCell>
                <mxCell id="48" value="1.1.3: getISBN" style="text;html=1;align=center;verticalAlign=middle;resizable=0;points=[];autosize=1;strokeColor=none;fillColor=none;" vertex="1" parent="1">
                    <mxGeometry x="765" y="410" width="90" height="20" as="geometry"/>
                </mxCell>
                <mxCell id="50" value=": CommentModel" style="html=1;" vertex="1" parent="1">
                    <mxGeometry x="1040" y="130" width="110" height="50" as="geometry"/>
                </mxCell>
                <mxCell id="52" value="" style="edgeStyle=none;html=1;exitX=0.5;exitY=1;exitDx=0;exitDy=0;dashed=1;endArrow=none;endFill=0;startArrow=none;" edge="1" parent="1" source="56">
                    <mxGeometry relative="1" as="geometry">
                        <mxPoint x="1095" y="640" as="targetPoint"/>
                        <mxPoint x="1095" y="180" as="sourcePoint"/>
                    </mxGeometry>
                </mxCell>
                <mxCell id="55" value="" style="endArrow=classic;html=1;" edge="1" parent="1" target="56">
                    <mxGeometry width="50" height="50" relative="1" as="geometry">
                        <mxPoint x="529" y="510" as="sourcePoint"/>
                        <mxPoint x="1040" y="510" as="targetPoint"/>
                        <Array as="points"/>
                    </mxGeometry>
                </mxCell>
                <mxCell id="56" value="" style="html=1;points=[];perimeter=orthogonalPerimeter;" vertex="1" parent="1">
                    <mxGeometry x="1090" y="510" width="10" height="40" as="geometry"/>
                </mxCell>
                <mxCell id="57" value="" style="edgeStyle=none;html=1;exitX=0.5;exitY=1;exitDx=0;exitDy=0;dashed=1;endArrow=none;endFill=0;" edge="1" parent="1" source="50" target="56">
                    <mxGeometry relative="1" as="geometry">
                        <mxPoint x="1095" y="640" as="targetPoint"/>
                        <mxPoint x="1095" y="180" as="sourcePoint"/>
                    </mxGeometry>
                </mxCell>
                <mxCell id="58" value="1.1.4: getComment" style="text;html=1;align=center;verticalAlign=middle;resizable=0;points=[];autosize=1;strokeColor=none;fillColor=none;" vertex="1" parent="1">
                    <mxGeometry x="755" y="490" width="120" height="20" as="geometry"/>
                </mxCell>
                <mxCell id="59" value="" style="endArrow=classic;dashed=1;html=1;endFill=1;exitX=-0.333;exitY=1;exitDx=0;exitDy=0;exitPerimeter=0;" edge="1" parent="1" source="56">
                    <mxGeometry width="50" height="50" relative="1" as="geometry">
                        <mxPoint x="920" y="550" as="sourcePoint"/>
                        <mxPoint x="530" y="550" as="targetPoint"/>
                    </mxGeometry>
                </mxCell>
                <mxCell id="60" value="" style="html=1;points=[];perimeter=orthogonalPerimeter;" vertex="1" parent="1">
                    <mxGeometry x="240" y="600" width="10" height="60" as="geometry"/>
                </mxCell>
                <mxCell id="61" value="" style="edgeStyle=none;html=1;exitX=0.5;exitY=1;exitDx=0;exitDy=0;dashed=1;endArrow=none;endFill=0;" edge="1" parent="1" source="9" target="60">
                    <mxGeometry relative="1" as="geometry">
                        <mxPoint x="245" y="670" as="targetPoint"/>
                        <mxPoint x="245" y="180" as="sourcePoint"/>
                    </mxGeometry>
                </mxCell>
                <mxCell id="62" value="" style="endArrow=classic;html=1;exitX=1;exitY=0.019;exitDx=0;exitDy=0;exitPerimeter=0;entryX=1.1;entryY=0.024;entryDx=0;entryDy=0;entryPerimeter=0;rounded=0;" edge="1" parent="1">
                    <mxGeometry width="50" height="50" relative="1" as="geometry">
                        <mxPoint x="250" y="601.03" as="sourcePoint"/>
                        <mxPoint x="261.0000000000001" y="621.92" as="targetPoint"/>
                        <Array as="points">
                            <mxPoint x="340" y="600"/>
                            <mxPoint x="340" y="620"/>
                        </Array>
                    </mxGeometry>
                </mxCell>
                <mxCell id="63" value="" style="html=1;points=[];perimeter=orthogonalPerimeter;" vertex="1" parent="1">
                    <mxGeometry x="250" y="620" width="10" height="30" as="geometry"/>
                </mxCell>
                <mxCell id="64" value="2: receiveUpdateRequest" style="text;html=1;align=center;verticalAlign=middle;resizable=0;points=[];autosize=1;strokeColor=none;fillColor=none;" vertex="1" parent="1">
                    <mxGeometry x="260" y="580" width="150" height="20" as="geometry"/>
                </mxCell>
            </root>
        </mxGraphModel>
    </diagram>
</mxfile>